<svg height="496pt" viewBox="-64 0 496 496" width="496pt" xmlns="http://www.w3.org/2000/svg"><path d="M336 432c-12.16 0-22.633 6.879-28 16.8-5.441-9.921-15.91-16.8-28-16.8-1.594 0-3.273.16-4.8.398-.641.082-1.2.168-1.759.32-.722.169-1.52.321-2.242.563-.64.16-1.277.399-1.918.64-2 .72-3.832 1.68-5.68 2.72v-.082C261.84 420.48 248.489 408 232 408c-6 0-11.594 1.762-16.398 4.64-.723-6.718-3.442-12.808-7.602-17.6V320h-48v75.04c-4.23 4.8-6.953 10.8-7.68 17.519v.082c-2.32-1.442-4.87-2.563-7.511-3.36a30.345 30.345 0 0 0-2.243-.562c-.558-.16-1.191-.239-1.757-.32-1.528-.239-3.207-.399-4.809-.399-16.55 0-30 12.559-31.68 28.64C99.52 433.763 94 432 88 432c-12.16 0-22.633 6.879-28 16.8-5.441-9.921-15.91-16.8-28-16.8-17.68 0-32 14.32-32 32s14.238 32 32 32h304c17.688 0 32-14.32 32-32s-14.398-32-32-32zm0 0" fill="#e6e9ed"/><path d="M184 360a7.99 7.99 0 0 1-8-8v-32c0-4.426 3.574-8 8-8s8 3.574 8 8v32c0 4.426-3.574 8-8 8zm0 0" fill="#ccd1d9"/><path d="M288 256v24h-48v-72c26.488 0 48 21.512 48 48zm0 0" fill="#da4453"/><path d="M224 296v8c0 8.879-7.191 16-16 16h-48c-8.871 0-16-7.121-16-16h.09v-8zm0 0" fill="#656d78"/><path d="M128 208v72H80v-24c0-26.488 21.45-48 48-48zm0 0" fill="#ed5565"/><path d="M240 280v16H128V176h32l24 16 24-16h32zm0 0" fill="#e6e9ed"/><path d="M288 0v176h-80l-24 16-24-16H80V0zm0 0" fill="#ffce54"/><path d="M368 463.664c0 17.672-14.328 32-32 32s-32-14.328-32-32 14.328-32 32-32 32 14.328 32 32zm-104-24c0 17.672-14.328 32-32 32s-32-14.328-32-32 14.328-32 32-32 32 14.328 32 32zm-200 24c0 17.672-14.328 32-32 32s-32-14.328-32-32 14.328-32 32-32 32 14.328 32 32zm104-24c0 17.672-14.328 32-32 32s-32-14.328-32-32 14.328-32 32-32 32 14.328 32 32zm0 0" fill="#f5f7fa"/><path d="M248 48H120c-4.426 0-8-3.574-8-8s3.574-8 8-8h128c4.426 0 8 3.574 8 8s-3.574 8-8 8zm0 32H120c-4.426 0-8-3.574-8-8s3.574-8 8-8h128c4.426 0 8 3.574 8 8s-3.574 8-8 8zm0 32H120c-4.426 0-8-3.574-8-8s3.574-8 8-8h128c4.426 0 8 3.574 8 8s-3.574 8-8 8zm-32 32h-64c-4.426 0-8-3.574-8-8s3.574-8 8-8h64c4.426 0 8 3.574 8 8s-3.574 8-8 8zm0 0" fill="#f6bb42"/></svg>