<svg height="512pt" viewBox="0 -14 512 512" width="512pt" xmlns="http://www.w3.org/2000/svg"><g fill-rule="evenodd"><path d="m38.875 10h434.25c15.773438 0 28.675781 12.902344 28.675781 28.675781v267.839844c0 15.769531-12.902343 28.675781-28.675781 28.675781h-434.25c-15.769531 0-28.675781-12.90625-28.675781-28.675781v-267.839844c0-15.773437 12.90625-28.675781 28.675781-28.675781zm0 0" fill="#d0d7df"/><path d="m325.054688 172.59375-138.109376-79.734375v159.46875l69.054688-39.863281zm0 0" fill="#fa5c66"/><path d="m138.441406 382.902344c14.484375 0 26.335938 11.851562 26.335938 26.335937v38.839844c0 14.484375-11.851563 26.335937-26.335938 26.335937-14.480468 0-26.335937-11.851562-26.335937-26.335937v-38.839844c0-14.484375 11.855469-26.335937 26.335937-26.335937zm0 0" fill="#88c9f7"/><path d="m501.800781 140.867188c-5.523437 0-10 4.480468-10 10v155.648437c0 10.296875-8.378906 18.675781-18.675781 18.675781h-434.25c-10.296875 0-18.675781-8.378906-18.675781-18.675781v-30.601563c0-5.523437-4.476563-10-10-10-5.523438 0-10 4.476563-10 10v30.601563c0 21.324219 17.351562 38.675781 38.675781 38.675781h434.25c21.324219 0 38.675781-17.351562 38.675781-38.675781v-155.648437c0-5.519532-4.476562-10-10-10zm0 0"/><path d="m10.199219 204.320312c5.523437 0 10-4.476562 10-10v-155.644531c0-10.296875 8.378906-18.675781 18.675781-18.675781h434.25c10.296875 0 18.675781 8.378906 18.675781 18.675781v30.601563c0 5.519531 4.476563 10 10 10 5.523438 0 10-4.480469 10-10v-30.601563c0-21.324219-17.351562-38.675781-38.675781-38.675781h-434.25c-21.324219 0-38.675781 17.351562-38.675781 38.675781v155.644531c0 5.523438 4.476562 10 10 10zm0 0"/><path d="m191.945312 84.199219c-3.09375-1.785157-6.90625-1.785157-10 0-3.09375 1.785156-5 5.085937-5 8.660156v159.46875c0 3.574219 1.90625 6.875 5 8.660156 1.546876.894531 3.273438 1.339844 5 1.339844 1.726563 0 3.453126-.445313 5-1.339844l138.105469-79.734375c3.09375-1.785156 5-5.085937 5-8.660156 0-3.570312-1.90625-6.871094-5-8.660156zm5 150.8125v-124.832031l108.109376 62.414062zm0 0"/><path d="m501.800781 418.660156h-327.023437v-9.421875c0-20.039062-16.296875-36.335937-36.335938-36.335937-20.035156 0-36.335937 16.296875-36.335937 36.335937v9.421875h-91.90625c-5.523438 0-10 4.476563-10 10 0 5.523438 4.476562 10 10 10h91.90625v9.417969c0 20.039063 16.300781 36.335937 36.335937 36.335937 20.039063 0 36.335938-16.296874 36.335938-36.335937v-9.417969h327.023437c5.523438 0 10-4.476562 10-10 0-5.523437-4.476562-10-10-10zm-347.023437 29.417969c0 9.011719-7.328125 16.335937-16.335938 16.335937-9.007812 0-16.335937-7.324218-16.335937-16.335937v-38.839844c0-9.007812 7.328125-16.335937 16.335937-16.335937 9.007813 0 16.335938 7.328125 16.335938 16.335937zm0 0"/><path d="m10.199219 245.316406c5.617187 0 10.199219-4.582031 10.199219-10.199218 0-5.617188-4.582032-10.199219-10.199219-10.199219-5.617188 0-10.199219 4.582031-10.199219 10.199219 0 5.617187 4.582031 10.199218 10.199219 10.199218zm0 0"/><path d="m501.800781 99.871094c-5.617187 0-10.199219 4.582031-10.199219 10.199218 0 5.617188 4.582032 10.199219 10.199219 10.199219 5.617188 0 10.199219-4.582031 10.199219-10.199219 0-5.617187-4.582031-10.199218-10.199219-10.199218zm0 0"/></g></svg>