<svg height="512pt" viewBox="0 -66 512 511" width="512pt" xmlns="http://www.w3.org/2000/svg"><g fill-rule="evenodd"><path d="m91.039062 10.5h410.960938v277.109375h-410.960938zm0 0" fill="#a4b0c0"/><path d="m50.519531 51.019531h410.960938v277.109375h-410.960938zm0 0" fill="#a4b0c0"/><path d="m10 91.539062h410.960938v277.109376h-410.960938zm0 0" fill="#d0d7df"/><path d="m215.480469 324.472656c51.980469 0 94.378906-42.398437 94.378906-94.378906 0-51.984375-42.398437-94.382812-94.378906-94.382812-51.984375 0-94.378907 42.398437-94.378907 94.382812 0 51.980469 42.394532 94.378906 94.378907 94.378906zm0 0" fill="#fed049"/><path d="m267.832031 230.09375-41.300781-23.84375-41.300781-23.847656v95.378906zm0 0" fill="#fa5c66"/><path d="m502 .5h-410.960938c-5.523437 0-10 4.476562-10 10v30.519531h-30.519531c-5.523437 0-10 4.476563-10 10v30.519531h-30.519531c-5.523438 0-10 4.480469-10 10v277.109376c0 5.523437 4.476562 10 10 10h165.480469c5.523437 0 10-4.476563 10-10 0-5.519532-4.476563-10-10-10h-155.480469v-257.109376h390.960938v257.109376h-155.480469c-5.523438 0-10 4.476562-10 10 0 5.523437 4.476562 10 10 10h165.480469c5.519531 0 10-4.476563 10-10v-30.519532h30.519531c5.523437 0 10-4.480468 10-10v-30.519531h30.519531c5.523438 0 10-4.480469 10-10v-277.109375c0-5.523438-4.476562-10-10-10zm-50.519531 317.628906h-20.519531v-226.589844c0-5.523437-4.480469-10-10-10h-360.441407v-20.519531h390.960938zm40.519531-40.519531h-20.519531v-226.589844c0-5.523437-4.476563-10-10-10h-360.441407v-20.519531h390.960938zm0 0"/><path d="m319.859375 230.09375c0-57.558594-46.824219-104.378906-104.378906-104.378906-57.554688 0-104.378907 46.820312-104.378907 104.378906 0 57.554688 46.824219 104.378906 104.378907 104.378906 57.554687 0 104.378906-46.824218 104.378906-104.378906zm-188.757813 0c0-46.527344 37.851563-84.378906 84.378907-84.378906 46.527343 0 84.378906 37.851562 84.378906 84.378906s-37.851563 84.378906-84.378906 84.378906c-46.527344 0-84.378907-37.851562-84.378907-84.378906zm0 0"/><path d="m277.832031 230.09375c0-3.570312-1.90625-6.875-5-8.660156l-82.601562-47.6875c-3.09375-1.789063-6.90625-1.789063-10 0-3.09375 1.785156-5 5.085937-5 8.660156v95.378906c0 3.570313 1.90625 6.871094 5 8.660156 1.546875.894532 3.273437 1.339844 5 1.339844 1.730469 0 3.453125-.445312 5-1.339844l82.601562-47.691406c3.09375-1.785156 5-5.089844 5-8.660156zm-82.601562 30.371094v-60.742188l52.601562 30.371094zm0 0"/><path d="m215.480469 358.648438c-5.507813 0-10 4.492187-10 10 0 5.507812 4.492187 10 10 10 5.507812 0 10-4.492188 10-10 0-5.507813-4.492188-10-10-10zm0 0"/></g></svg>